<?xml version="1.0" encoding="utf-8"?>
<!-- Generator: Adobe Illustrator 25.2.0, SVG Export Plug-In . SVG Version: 6.00 Build 0)  -->
<svg version="1.1" id="Layer_1" xmlns="http://www.w3.org/2000/svg" xmlns:xlink="http://www.w3.org/1999/xlink" x="0px" y="0px"
	 viewBox="0 0 442.06 74.3" style="enable-background:new 0 0 442.06 74.3;" xml:space="preserve">
<style type="text/css">
	.st0{fill:#0047BA;}
	.st1{fill:#0047BA;stroke:#0047BA;stroke-width:0.5;stroke-miterlimit:10;}
	.st2{fill:#00205C;}
	.st3{fill:#1A428A;}
	.st4{fill:#416BA9;}
	.st5{fill:#6786B8;}
</style>
<g>
	<path class="st0" d="M87.9,61.52V13.79c3.04-0.57,7.21-1.01,12.59-1.01c6.14,0,10.76,1.19,13.85,3.83
		c2.91,2.45,4.68,6.35,4.68,10.82c0,13.27-11.13,16.22-18.41,16.22c-1.33,0-2.47-0.06-3.42-0.25v18.11H87.9z M97.2,36.12
		c0.89,0.19,1.9,0.25,3.29,0.25c5.82,0,9.24-3.27,9.24-8.49c0-5.16-3.29-7.86-8.48-7.86c-1.9,0-3.23,0.19-4.05,0.38V36.12z"/>
	<path class="st0" d="M153.06,53.72v7.8h-27.2V13.16h26.19v7.8h-16.83v11.7h15.88v7.61h-15.88v13.46H153.06z"/>
	<path class="st0" d="M160.27,13.79c3.23-0.57,7.78-1.01,12.53-1.01c6.14,0,18.54,0.75,18.54,13.71c0,5.91-3.8,10.25-8.35,12.01
		v0.19c3.42,1.32,5.31,4.59,6.45,9.49c1.39,5.72,2.66,11.51,3.61,13.33h-9.62c-0.7-1.38-1.9-5.6-3.04-11.44
		c-1.27-6.22-3.23-8.18-7.65-8.18h-3.16v19.62h-9.3V13.79z M169.57,34.98h3.86c5.31,0,8.54-3.08,8.54-7.67
		c0-6.22-4.68-7.42-8.1-7.42c-2.09,0-3.54,0.13-4.3,0.38V34.98z"/>
	<path class="st0" d="M243.4,13.16l2.78,48.36h-8.92l-0.89-18.8c-0.25-6.35-0.57-14.15-0.51-19.05h-0.19
		c-1.39,5.79-3.16,12.2-4.81,17.61l-5.95,19.55h-7.09l-5.38-19.24c-1.58-5.47-3.1-12.01-4.24-17.92h-0.19
		c-0.13,6.1-0.44,13.27-0.76,19.24l-0.95,18.61h-8.54l3.29-48.36h11.58l5.25,18.17c1.58,5.85,2.97,11.51,4.05,17.04h0.19
		c1.14-5.41,2.59-11.26,4.24-17.04l5.5-18.17H243.4z"/>
	<path class="st0" d="M336.47,16.62c-3.1-2.64-7.72-3.83-13.86-3.83c-5.38,0-9.55,0.44-12.59,1.01v22.32h-27.13l-6.46-22.95h-11.77
		l-13.79,48.35h9.49l4.3-17.97l11.08-0.03l4.48,18h9.81l-5.07-18.02l25.06-0.07v18.09h9.3V43.41c0.95,0.19,2.09,0.25,3.42,0.25
		c7.27,0,18.41-2.95,18.41-16.22C341.15,22.98,339.38,19.08,336.47,16.62z M266.44,36.12l3.66-15.28l3.8,15.28H266.44z
		 M322.61,36.37c-1.39,0-2.4-0.06-3.29-0.25V20.4c0.82-0.19,2.15-0.38,4.05-0.38c5.19,0,8.48,2.7,8.48,7.86
		C331.85,33.1,328.43,36.37,322.61,36.37z"/>
	<path class="st0" d="M347.98,61.52V13.16h9.36v48.36H347.98z"/>
	<path class="st0" d="M366.84,61.52V13.79c3.04-0.57,7.21-1.01,12.59-1.01c6.14,0,10.76,1.19,13.85,3.83
		c2.91,2.45,4.68,6.35,4.68,10.82c0,13.27-11.14,16.22-18.41,16.22c-1.33,0-2.47-0.06-3.42-0.25v18.11H366.84z M376.14,36.12
		c0.89,0.19,1.9,0.25,3.29,0.25c5.82,0,9.24-3.27,9.24-8.49c0-5.16-3.29-7.86-8.48-7.86c-1.9,0-3.23,0.19-4.05,0.38V36.12z"/>
	<path class="st0" d="M432,53.72v7.8h-27.2V13.16h26.19v7.8h-16.83v11.7h15.88v7.61h-15.88v13.46H432z"/>
</g>
<g>
	<path class="st1" d="M439.59,13.03c0.7,0.39,1.24,0.95,1.63,1.67c0.39,0.72,0.59,1.55,0.59,2.49c0,0.92-0.2,1.75-0.59,2.47
		c-0.39,0.72-0.94,1.29-1.64,1.7c-0.7,0.41-1.51,0.61-2.42,0.61c-0.91,0-1.71-0.2-2.41-0.61c-0.71-0.41-1.25-0.97-1.64-1.7
		c-0.39-0.72-0.59-1.54-0.59-2.47c0-0.94,0.2-1.77,0.59-2.49s0.94-1.27,1.63-1.67c0.7-0.39,1.51-0.59,2.42-0.59
		C438.08,12.44,438.89,12.64,439.59,13.03z M439.39,20.94c0.63-0.35,1.12-0.85,1.46-1.5c0.34-0.65,0.51-1.4,0.51-2.25
		c0-0.87-0.17-1.64-0.51-2.29c-0.34-0.66-0.83-1.17-1.46-1.53c-0.63-0.36-1.37-0.54-2.23-0.54c-0.85,0-1.6,0.18-2.23,0.54
		c-0.64,0.36-1.13,0.87-1.47,1.53c-0.34,0.66-0.51,1.42-0.51,2.29c0,0.85,0.17,1.6,0.51,2.25c0.34,0.65,0.83,1.15,1.47,1.5
		c0.64,0.35,1.38,0.53,2.23,0.53C438.02,21.47,438.76,21.29,439.39,20.94z M439.04,16.87c-0.3,0.3-0.74,0.47-1.31,0.51l1.76,2.65
		h-0.73l-1.72-2.64h-1.02v2.64h-0.65V14h2.05c0.69,0,1.21,0.15,1.55,0.46c0.35,0.31,0.52,0.71,0.52,1.22
		C439.49,16.18,439.34,16.57,439.04,16.87z M438.82,15.75c0-0.38-0.11-0.66-0.34-0.86c-0.22-0.2-0.6-0.3-1.12-0.3h-1.35v2.33h1.35
		C438.34,16.92,438.82,16.53,438.82,15.75z"/>
</g>
<path class="st2" d="M1.05,36.66C6.35,20.9,24.53,12.74,41.63,18.43c3.27,1.09,6.26,2.61,8.93,4.46
	c-1.88-8.59-6.91-15.37-14.3-17.83C23.33,0.76,8.1,11.35,2.25,28.72C0.88,32.79,0.15,36.87,0,40.8C0.24,39.41,0.58,38.03,1.05,36.66
	z"/>
<path class="st3" d="M26.92,1.31C43.64,1.46,57.06,16.12,56.9,34.05c-0.03,3.43-0.56,6.73-1.5,9.82
	c7.64-4.43,12.57-11.29,12.64-19.02C68.16,11.29,53.32,0.16,34.89,0c-4.32-0.04-8.45,0.54-12.25,1.6
	C24.04,1.41,25.47,1.3,26.92,1.31z"/>
<path class="st0" d="M68.73,14.85c5.02,15.85-4.85,33.06-22.06,38.45c-3.29,1.03-6.61,1.55-9.86,1.61c6.6,5.85,14.69,8.4,22.11,6.07
	c13.01-4.08,19.07-21.54,13.53-39.01c-1.3-4.1-3.13-7.83-5.32-11.09C67.76,12.15,68.3,13.47,68.73,14.85z"/>
<path class="st4" d="M68.7,58.56c-13.61,9.65-33.14,5.63-43.61-8.97c-2-2.79-3.53-5.77-4.59-8.82c-3.56,8.05-3.5,16.48,1.02,22.78
	c7.92,11.04,26.5,11.37,41.51,0.73c3.52-2.49,6.52-5.37,8.97-8.46C70.98,56.8,69.88,57.72,68.7,58.56z"/>
<g>
	<path class="st5" d="M26.87,72.04c-13.44-9.89-15.63-29.59-4.89-44c2.05-2.76,4.43-5.11,7.02-7.07c-8.8-0.88-16.85,1.79-21.48,8
		c-8.12,10.9-2.69,28.57,12.12,39.47c3.47,2.56,7.16,4.5,10.86,5.86C29.25,73.65,28.04,72.9,26.87,72.04z"/>
</g>
</svg>
